# xmcd
#
# Track frame offsets:
#	150
#	16597
#	32397
#	42710
#	67270
#	81162
#	106682
#	116480
#	135202
#	146820
#
# Disc length: 2158 seconds
#
# Revision: 1
# Processed by: cddbd v1.5.1PL0 Copyright (c) Steve Scherf et al.
# Submitted via: audiograbber 1.83.01
#
DISCID=7d086c0a
DTITLE=George Worthmore and The Divebombers - George Worthmore and The Divebombers
DYEAR=1900
DGENRE=Blues
TTITLE0=Fender Bender
TTITLE1=Blues in a Bottle
TTITLE2=Reelin' and Rockin'
TTITLE3=Hootchie Cootchie Man
TTITLE4=Mary Anne
TTITLE5=That's Alright
TTITLE6=Dancin'
TTITLE7=Walking Blues
TTITLE8=Rocket 88
TTITLE9=Sludgedome Blues
EXTD=
EXTT0=
EXTT1=
EXTT2=
EXTT3=
EXTT4=
EXTT5=
EXTT6=
EXTT7=
EXTT8=
EXTT9=
PLAYORDER=
